<svg id="visual" viewBox="0 0 960 540" width="960" height="540" xmlns="http://www.w3.org/2000/svg" xmlns:xlink="http://www.w3.org/1999/xlink" version="1.1"><path d="M0 50L14.5 52.7C29 55.3 58 60.7 87.2 64.2C116.3 67.7 145.7 69.3 174.8 67.5C204 65.7 233 60.3 262 64.8C291 69.3 320 83.7 349 91.8C378 100 407 102 436.2 99.3C465.3 96.7 494.7 89.3 523.8 88.3C553 87.3 582 92.7 611 90.8C640 89 669 80 698 79.2C727 78.3 756 85.7 785.2 83.8C814.3 82 843.7 71 872.8 72.8C902 74.7 931 89.3 945.5 96.7L960 104L960 0L945.5 0C931 0 902 0 872.8 0C843.7 0 814.3 0 785.2 0C756 0 727 0 698 0C669 0 640 0 611 0C582 0 553 0 523.8 0C494.7 0 465.3 0 436.2 0C407 0 378 0 349 0C320 0 291 0 262 0C233 0 204 0 174.8 0C145.7 0 116.3 0 87.2 0C58 0 29 0 14.5 0L0 0Z" fill="#b6be9c"></path><path d="M0 152L14.5 160.2C29 168.3 58 184.7 87.2 181.2C116.3 177.7 145.7 154.3 174.8 141.7C204 129 233 127 262 137.7C291 148.3 320 171.7 349 185.2C378 198.7 407 202.3 436.2 199.7C465.3 197 494.7 188 523.8 180C553 172 582 165 611 160.5C640 156 669 154 698 165.7C727 177.3 756 202.7 785.2 198.2C814.3 193.7 843.7 159.3 872.8 151.2C902 143 931 161 945.5 170L960 179L960 102L945.5 94.7C931 87.3 902 72.7 872.8 70.8C843.7 69 814.3 80 785.2 81.8C756 83.7 727 76.3 698 77.2C669 78 640 87 611 88.8C582 90.7 553 85.3 523.8 86.3C494.7 87.3 465.3 94.7 436.2 97.3C407 100 378 98 349 89.8C320 81.7 291 67.3 262 62.8C233 58.3 204 63.7 174.8 65.5C145.7 67.3 116.3 65.7 87.2 62.2C58 58.7 29 53.3 14.5 50.7L0 48Z" fill="#93ae97"></path><path d="M0 190L14.5 198.2C29 206.3 58 222.7 87.2 221.8C116.3 221 145.7 203 174.8 196.7C204 190.3 233 195.7 262 208.2C291 220.7 320 240.3 349 247.5C378 254.7 407 249.3 436.2 242.2C465.3 235 494.7 226 523.8 225.2C553 224.3 582 231.7 611 229C640 226.3 669 213.7 698 218.2C727 222.7 756 244.3 785.2 238C814.3 231.7 843.7 197.3 872.8 195.5C902 193.7 931 224.3 945.5 239.7L960 255L960 177L945.5 168C931 159 902 141 872.8 149.2C843.7 157.3 814.3 191.7 785.2 196.2C756 200.7 727 175.3 698 163.7C669 152 640 154 611 158.5C582 163 553 170 523.8 178C494.7 186 465.3 195 436.2 197.7C407 200.3 378 196.7 349 183.2C320 169.7 291 146.3 262 135.7C233 125 204 127 174.8 139.7C145.7 152.3 116.3 175.7 87.2 179.2C58 182.7 29 166.3 14.5 158.2L0 150Z" fill="#789c93"></path><path d="M0 320L14.5 341.5C29 363 58 406 87.2 413.2C116.3 420.3 145.7 391.7 174.8 373.7C204 355.7 233 348.3 262 362.7C291 377 320 413 349 432C378 451 407 453 436.2 438.7C465.3 424.3 494.7 393.7 523.8 378.3C553 363 582 363 611 358.5C640 354 669 345 698 360.3C727 375.7 756 415.3 785.2 408.2C814.3 401 843.7 347 872.8 333.5C902 320 931 347 945.5 360.5L960 374L960 253L945.5 237.7C931 222.3 902 191.7 872.8 193.5C843.7 195.3 814.3 229.7 785.2 236C756 242.3 727 220.7 698 216.2C669 211.7 640 224.3 611 227C582 229.7 553 222.3 523.8 223.2C494.7 224 465.3 233 436.2 240.2C407 247.3 378 252.7 349 245.5C320 238.3 291 218.7 262 206.2C233 193.7 204 188.3 174.8 194.7C145.7 201 116.3 219 87.2 219.8C58 220.7 29 204.3 14.5 196.2L0 188Z" fill="#67888c"></path><path d="M0 541L14.5 541C29 541 58 541 87.2 541C116.3 541 145.7 541 174.8 541C204 541 233 541 262 541C291 541 320 541 349 541C378 541 407 541 436.2 541C465.3 541 494.7 541 523.8 541C553 541 582 541 611 541C640 541 669 541 698 541C727 541 756 541 785.2 541C814.3 541 843.7 541 872.8 541C902 541 931 541 945.5 541L960 541L960 372L945.5 358.5C931 345 902 318 872.8 331.5C843.7 345 814.3 399 785.2 406.2C756 413.3 727 373.7 698 358.3C669 343 640 352 611 356.5C582 361 553 361 523.8 376.3C494.7 391.7 465.3 422.3 436.2 436.7C407 451 378 449 349 430C320 411 291 375 262 360.7C233 346.3 204 353.7 174.8 371.7C145.7 389.7 116.3 418.3 87.2 411.2C58 404 29 361 14.5 339.5L0 318Z" fill="#5e747f"></path></svg>